@startuml
skinparam packageStyle rectangle
skinparam shadowing false
skinparam linetype polyline

skinparam classAttributeIconSize 0


class RequestPurchaseOrderUI {}

class RequestPurchaseOrderController {
    + RequestPurchaseOrderController()
    + getAgent()
    + getTypeOfBusiness()
    + getTypeOfProperty()
    + submitRequest(price, area, distCityCenter, address, \nphotograph, numberOfBedrooms, numberOfBathrooms, \n numberOfParkingSpaces, equipmentDesignation, sunExposer, \n basement, loft, typeOfBusiness, typeOfProperty, agent)
}

class Repositories {
    - Repositories()
    + getInstance() : Repositories
    + getPurchaseOrderRepository()
    + getEmployeeRepository()
    + getTypeOfBusinessRepository()
    + getTypeOfPropertyRepository()
}
class ManageEmployeeRepository{
    + manageEmployeeRepository(employeeRepository)
    + getAgents()
    - filterByRole(agent)
}

class ManagePurchaseOrderRepository{
    + ManagePurchaseOrderRepository(PurchaseOrderRepository)
    + createProperty(price, area, distCityCenter, address, \nphotograph, numberOfBedrooms, numberOfBathrooms, \n numberOfParkingSpaces, equipmentDesignation, sunExposer, \n basement, loft, typeOfBusiness, typeOfProperty)
    + createRequest(property, agent, dateOfRequest)
    - getDate()
    - validateRequest
    }
class PurchaseOrderRepository{
    - addRequest(request)
}


class PurchaseOrder{
    - Property property
    - String dateOfRequest
    - Agent agent
    + request(property, dateOfRequest, agent)
}

class Property{
    - double price
    - double area
    - double distCityCenter
    - Address address
    - Photograph photograph
    - int numberOfBathrooms
    - int numberOfBedrooms
    - int numberOfParkingSpaces
    - Equipment equipment
    - String sunExposer
    - boolean basement
    - boolean loft
    - TypeOfBusiness typeOfBusiness
    - TypeOfProperty typeOfProperty
}

class Employee {
    - String name
    - String telephoneNumber
    - Email email
    - PassportCard passportCardNumber
    - SocialSecurityCard taxNumber
    - Address address
    '- Store store
    '- Role role

    + Employee(name, passportCardNumber, taxNumber,\n address, emailAddress, telephoneNumber, store, role)
}


RequestPurchaseOrderUI --> RequestPurchaseOrderController

RequestPurchaseOrderController ..> ManageEmployeeRepository
RequestPurchaseOrderController ..> ManagePurchaseOrderRepository

ManageEmployeeRepository ..> Repositories
ManagePurchaseOrderRepository ..> Repositories

Repositories --> PurchaseOrderRepository
Repositories --> EmployeeRepository

EmployeeRepository --> Employee

ManagePurchaseOrderRepository ..> PurchaseOrderRepository
ManagePurchaseOrderRepository --> PurchaseOrder

PurchaseOrderRepository --> PurchaseOrder

PurchaseOrder --> Property

ManagePurchaseOrderRepository ..> Property
@enduml